<svg width="495" height="261" viewBox="0 0 495 261" fill="none" xmlns="http://www.w3.org/2000/svg">
<rect opacity="0.0416667" width="256.224" height="309.948" rx="128.112" transform="matrix(-0.929791 0.368089 -0.6567 -0.754152 282.703 268.483)" stroke="url(#paint0_linear)" stroke-width="2" stroke-linecap="round" stroke-dasharray="50 10"/>
<rect opacity="0.0833333" width="261.359" height="300.649" rx="130.68" transform="matrix(-0.95279 0.303632 -0.57805 -0.816002 279.704 266.375)" stroke="url(#paint1_linear)" stroke-width="2" stroke-linecap="round" stroke-dasharray="50 10"/>
<rect opacity="0.125" width="265.684" height="292.26" rx="132.842" transform="matrix(-0.970743 0.240123 -0.488316 -0.872667 276.705 264.267)" stroke="url(#paint2_linear)" stroke-width="2" stroke-linecap="round" stroke-dasharray="50 10"/>
<rect opacity="0.166667" width="269.108" height="285.125" rx="134.554" transform="matrix(-0.984131 0.177441 -0.387737 -0.92177 273.706 262.158)" stroke="url(#paint3_linear)" stroke-width="2" stroke-linecap="round" stroke-dasharray="50 10"/>
<rect opacity="0.208333" width="271.565" height="279.565" rx="135.782" transform="matrix(-0.993318 0.115412 -0.277398 -0.960755 270.706 260.05)" stroke="url(#paint4_linear)" stroke-width="2" stroke-linecap="round" stroke-dasharray="50 10"/>
<rect opacity="0.25" width="273.005" height="275.848" rx="136.502" transform="matrix(-0.99855 0.0538234 -0.159355 -0.987221 267.707 257.941)" stroke="url(#paint5_linear)" stroke-width="2" stroke-linecap="round" stroke-dasharray="50 10"/>
<rect opacity="0.291667" width="273.401" height="274.164" rx="136.701" transform="matrix(-0.999972 -0.00755476 -0.0365845 -0.999331 264.708 255.833)" stroke="url(#paint6_linear)" stroke-width="2" stroke-linecap="round" stroke-dasharray="50 10"/>
<rect opacity="0.333333" width="272.746" height="274.601" rx="136.373" transform="matrix(-0.997619 -0.0689626 0.0873042 -0.996182 261.709 253.724)" stroke="url(#paint7_linear)" stroke-width="2" stroke-linecap="round" stroke-dasharray="50 10"/>
<rect opacity="0.375" width="271.053" height="277.136" rx="135.526" transform="matrix(-0.99143 -0.130639 0.208545 -0.978013 258.709 251.615)" stroke="url(#paint8_linear)" stroke-width="2" stroke-linecap="round" stroke-dasharray="50 10"/>
<rect opacity="0.416667" width="268.353" height="281.637" rx="134.176" transform="matrix(-0.981236 -0.19281 0.323739 -0.946146 255.71 249.507)" stroke="url(#paint9_linear)" stroke-width="2" stroke-linecap="round" stroke-dasharray="50 10"/>
<rect opacity="0.458333" width="264.699" height="287.879" rx="132.35" transform="matrix(-0.966761 -0.255681 0.430266 -0.902702 252.711 247.397)" stroke="url(#paint10_linear)" stroke-width="2" stroke-linecap="round" stroke-dasharray="50 10"/>
<rect opacity="0.5" width="260.166" height="295.569" rx="130.083" transform="matrix(-0.947615 -0.319415 0.526474 -0.850191 249.712 245.289)" stroke="url(#paint11_linear)" stroke-width="2" stroke-linecap="round" stroke-dasharray="50 10"/>
<rect opacity="0.541667" width="254.847" height="304.374" rx="127.424" transform="matrix(-0.923285 -0.384115 0.611649 -0.791129 246.712 243.181)" stroke="url(#paint12_linear)" stroke-width="2" stroke-linecap="round" stroke-dasharray="50 10"/>
<rect opacity="0.583333" width="248.861" height="313.945" rx="124.43" transform="matrix(-0.893133 -0.449792 0.685834 -0.727758 243.713 241.072)" stroke="url(#paint13_linear)" stroke-width="2" stroke-linecap="round" stroke-dasharray="50 10"/>
<rect opacity="0.625" width="242.345" height="323.936" rx="121.173" transform="matrix(-0.856394 -0.516323 0.749591 -0.661902 240.714 238.964)" stroke="url(#paint14_linear)" stroke-width="2" stroke-linecap="round" stroke-dasharray="50 10"/>
<rect opacity="0.666667" width="235.464" height="334.019" rx="117.732" transform="matrix(-0.812187 -0.583397 0.803775 -0.594934 237.714 236.855)" stroke="url(#paint15_linear)" stroke-width="2" stroke-linecap="round" stroke-dasharray="50 10"/>
<rect opacity="0.708333" width="228.403" height="343.895" rx="114.201" transform="matrix(-0.75955 -0.650449 0.849359 -0.527815 234.715 234.747)" stroke="url(#paint16_linear)" stroke-width="2" stroke-linecap="round" stroke-dasharray="50 10"/>
<rect opacity="0.75" width="221.369" height="353.292" rx="110.684" transform="matrix(-0.697503 -0.716582 0.887316 -0.461162 231.716 232.638)" stroke="url(#paint17_linear)" stroke-width="2" stroke-linecap="round" stroke-dasharray="50 10"/>
<rect opacity="0.791667" width="214.589" height="361.972" rx="107.295" transform="matrix(-0.625159 -0.780497 0.918541 -0.395325 228.717 230.529)" stroke="url(#paint18_linear)" stroke-width="2" stroke-linecap="round" stroke-dasharray="50 10"/>
<rect opacity="0.833333" width="208.304" height="369.732" rx="104.152" transform="matrix(-0.541892 -0.840448 0.943822 -0.330455 225.717 228.421)" stroke="url(#paint19_linear)" stroke-width="2" stroke-linecap="round" stroke-dasharray="50 10"/>
<rect opacity="0.875" width="202.759" height="376.399" rx="101.38" transform="matrix(-0.447552 -0.894258 0.963818 -0.26656 222.718 226.312)" stroke="url(#paint20_linear)" stroke-width="2" stroke-linecap="round" stroke-dasharray="50 10"/>
<rect opacity="0.916667" width="198.191" height="381.832" rx="99.0956" transform="matrix(-0.342707 -0.939442 0.979064 -0.203552 219.719 224.203)" stroke="url(#paint21_linear)" stroke-width="2" stroke-linecap="round" stroke-dasharray="50 10"/>
<rect opacity="0.958333" width="194.812" height="385.921" rx="97.406" transform="matrix(-0.228841 -0.973464 0.989971 -0.141274 216.72 222.095)" stroke="url(#paint22_linear)" stroke-width="2" stroke-linecap="round" stroke-dasharray="50 10"/>
<rect width="192.789" height="388.587" rx="96.3944" transform="matrix(-0.108414 -0.994106 0.996833 -0.0795282 213.72 219.986)" stroke="url(#paint23_linear)" stroke-width="2" stroke-linecap="round" stroke-dasharray="50 10"/>
<defs>
<linearGradient id="paint0_linear" x1="128.112" y1="0" x2="128.112" y2="309.948" gradientUnits="userSpaceOnUse">
<stop stop-color="#BA75FF"/>
<stop offset="0.458333" stop-color="#76F7FF"/>
<stop offset="1" stop-color="#FF5A6D"/>
</linearGradient>
<linearGradient id="paint1_linear" x1="130.68" y1="0" x2="130.68" y2="300.649" gradientUnits="userSpaceOnUse">
<stop stop-color="#BA75FF"/>
<stop offset="0.458333" stop-color="#76F7FF"/>
<stop offset="1" stop-color="#FF5A6D"/>
</linearGradient>
<linearGradient id="paint2_linear" x1="132.842" y1="0" x2="132.842" y2="292.26" gradientUnits="userSpaceOnUse">
<stop stop-color="#BA75FF"/>
<stop offset="0.458333" stop-color="#76F7FF"/>
<stop offset="1" stop-color="#FF5A6D"/>
</linearGradient>
<linearGradient id="paint3_linear" x1="134.554" y1="0" x2="134.554" y2="285.125" gradientUnits="userSpaceOnUse">
<stop stop-color="#BA75FF"/>
<stop offset="0.458333" stop-color="#76F7FF"/>
<stop offset="1" stop-color="#FF5A6D"/>
</linearGradient>
<linearGradient id="paint4_linear" x1="135.782" y1="0" x2="135.782" y2="279.565" gradientUnits="userSpaceOnUse">
<stop stop-color="#BA75FF"/>
<stop offset="0.458333" stop-color="#76F7FF"/>
<stop offset="1" stop-color="#FF5A6D"/>
</linearGradient>
<linearGradient id="paint5_linear" x1="136.502" y1="0" x2="136.502" y2="275.848" gradientUnits="userSpaceOnUse">
<stop stop-color="#BA75FF"/>
<stop offset="0.458333" stop-color="#76F7FF"/>
<stop offset="1" stop-color="#FF5A6D"/>
</linearGradient>
<linearGradient id="paint6_linear" x1="136.701" y1="0" x2="136.701" y2="274.164" gradientUnits="userSpaceOnUse">
<stop stop-color="#BA75FF"/>
<stop offset="0.458333" stop-color="#76F7FF"/>
<stop offset="1" stop-color="#FF5A6D"/>
</linearGradient>
<linearGradient id="paint7_linear" x1="136.373" y1="0" x2="136.373" y2="274.601" gradientUnits="userSpaceOnUse">
<stop stop-color="#BA75FF"/>
<stop offset="0.458333" stop-color="#76F7FF"/>
<stop offset="1" stop-color="#FF5A6D"/>
</linearGradient>
<linearGradient id="paint8_linear" x1="135.526" y1="0" x2="135.526" y2="277.136" gradientUnits="userSpaceOnUse">
<stop stop-color="#BA75FF"/>
<stop offset="0.458333" stop-color="#76F7FF"/>
<stop offset="1" stop-color="#FF5A6D"/>
</linearGradient>
<linearGradient id="paint9_linear" x1="134.176" y1="0" x2="134.176" y2="281.637" gradientUnits="userSpaceOnUse">
<stop stop-color="#BA75FF"/>
<stop offset="0.458333" stop-color="#76F7FF"/>
<stop offset="1" stop-color="#FF5A6D"/>
</linearGradient>
<linearGradient id="paint10_linear" x1="132.35" y1="0" x2="132.35" y2="287.879" gradientUnits="userSpaceOnUse">
<stop stop-color="#BA75FF"/>
<stop offset="0.458333" stop-color="#76F7FF"/>
<stop offset="1" stop-color="#FF5A6D"/>
</linearGradient>
<linearGradient id="paint11_linear" x1="130.083" y1="0" x2="130.083" y2="295.569" gradientUnits="userSpaceOnUse">
<stop stop-color="#BA75FF"/>
<stop offset="0.458333" stop-color="#76F7FF"/>
<stop offset="1" stop-color="#FF5A6D"/>
</linearGradient>
<linearGradient id="paint12_linear" x1="127.424" y1="0" x2="127.424" y2="304.374" gradientUnits="userSpaceOnUse">
<stop stop-color="#BA75FF"/>
<stop offset="0.458333" stop-color="#76F7FF"/>
<stop offset="1" stop-color="#FF5A6D"/>
</linearGradient>
<linearGradient id="paint13_linear" x1="124.43" y1="0" x2="124.43" y2="313.945" gradientUnits="userSpaceOnUse">
<stop stop-color="#BA75FF"/>
<stop offset="0.458333" stop-color="#76F7FF"/>
<stop offset="1" stop-color="#FF5A6D"/>
</linearGradient>
<linearGradient id="paint14_linear" x1="121.173" y1="0" x2="121.173" y2="323.936" gradientUnits="userSpaceOnUse">
<stop stop-color="#BA75FF"/>
<stop offset="0.458333" stop-color="#76F7FF"/>
<stop offset="1" stop-color="#FF5A6D"/>
</linearGradient>
<linearGradient id="paint15_linear" x1="117.732" y1="0" x2="117.732" y2="334.019" gradientUnits="userSpaceOnUse">
<stop stop-color="#BA75FF"/>
<stop offset="0.458333" stop-color="#76F7FF"/>
<stop offset="1" stop-color="#FF5A6D"/>
</linearGradient>
<linearGradient id="paint16_linear" x1="114.201" y1="0" x2="114.201" y2="343.895" gradientUnits="userSpaceOnUse">
<stop stop-color="#BA75FF"/>
<stop offset="0.458333" stop-color="#76F7FF"/>
<stop offset="1" stop-color="#FF5A6D"/>
</linearGradient>
<linearGradient id="paint17_linear" x1="110.684" y1="0" x2="110.684" y2="353.292" gradientUnits="userSpaceOnUse">
<stop stop-color="#BA75FF"/>
<stop offset="0.458333" stop-color="#76F7FF"/>
<stop offset="1" stop-color="#FF5A6D"/>
</linearGradient>
<linearGradient id="paint18_linear" x1="107.295" y1="0" x2="107.295" y2="361.972" gradientUnits="userSpaceOnUse">
<stop stop-color="#BA75FF"/>
<stop offset="0.458333" stop-color="#76F7FF"/>
<stop offset="1" stop-color="#FF5A6D"/>
</linearGradient>
<linearGradient id="paint19_linear" x1="104.152" y1="0" x2="104.152" y2="369.732" gradientUnits="userSpaceOnUse">
<stop stop-color="#BA75FF"/>
<stop offset="0.458333" stop-color="#76F7FF"/>
<stop offset="1" stop-color="#FF5A6D"/>
</linearGradient>
<linearGradient id="paint20_linear" x1="101.38" y1="0" x2="101.38" y2="376.399" gradientUnits="userSpaceOnUse">
<stop stop-color="#BA75FF"/>
<stop offset="0.458333" stop-color="#76F7FF"/>
<stop offset="1" stop-color="#FF5A6D"/>
</linearGradient>
<linearGradient id="paint21_linear" x1="99.0956" y1="0" x2="99.0956" y2="381.832" gradientUnits="userSpaceOnUse">
<stop stop-color="#BA75FF"/>
<stop offset="0.458333" stop-color="#76F7FF"/>
<stop offset="1" stop-color="#FF5A6D"/>
</linearGradient>
<linearGradient id="paint22_linear" x1="97.406" y1="0" x2="97.406" y2="385.921" gradientUnits="userSpaceOnUse">
<stop stop-color="#BA75FF"/>
<stop offset="0.458333" stop-color="#76F7FF"/>
<stop offset="1" stop-color="#FF5A6D"/>
</linearGradient>
<linearGradient id="paint23_linear" x1="96.3944" y1="0" x2="96.3944" y2="388.587" gradientUnits="userSpaceOnUse">
<stop stop-color="#BA75FF"/>
<stop offset="0.458333" stop-color="#76F7FF"/>
<stop offset="1" stop-color="#FF5A6D"/>
</linearGradient>
</defs>
</svg>
