<svg width="1172" height="2468" viewBox="0 0 1172 2468" fill="none" xmlns="http://www.w3.org/2000/svg">
<path d="M-706.078 1094.74C-476.731 670.98 -188.93 468.928 241.712 779.86C528.699 987.069 634.409 909.012 597.499 1239.67C532.599 1821.1 175.621 1927.6 -215.157 1610.87C-468.375 1405.63 -937.936 1523.14 -706.078 1094.74Z" fill="#C4C4C4"/>
<path d="M-706.078 1094.74C-476.731 670.98 -188.93 468.928 241.712 779.86C528.699 987.069 634.409 909.012 597.499 1239.67C532.599 1821.1 175.621 1927.6 -215.157 1610.87C-468.375 1405.63 -937.936 1523.14 -706.078 1094.74Z" fill="url(#paint0_linear)"/>
<path d="M-706.078 1094.74C-476.731 670.98 -188.93 468.928 241.712 779.86C528.699 987.069 634.409 909.012 597.499 1239.67C532.599 1821.1 175.621 1927.6 -215.157 1610.87C-468.375 1405.63 -937.936 1523.14 -706.078 1094.74Z" fill="url(#paint1_linear)"/>
<path d="M-626.519 1331.74C-617.033 832.453 -459.575 516.431 46.7634 621.12C384.195 690.886 440.333 571.191 554.673 898.726C755.724 1474.65 496.8 1730.91 22.0638 1603.34C-285.556 1520.68 -636.109 1836.49 -626.519 1331.74Z" fill="#C4C4C4"/>
<path d="M-626.519 1331.74C-617.033 832.453 -459.575 516.431 46.7634 621.12C384.195 690.886 440.333 571.191 554.673 898.726C755.724 1474.65 496.8 1730.91 22.0638 1603.34C-285.556 1520.68 -636.109 1836.49 -626.519 1331.74Z" fill="url(#paint2_linear)"/>
<defs>
<linearGradient id="paint0_linear" x1="-953.264" y1="874.963" x2="690.077" y2="665.803" gradientUnits="userSpaceOnUse">
<stop stop-color="#3913B8"/>
<stop offset="1" stop-color="#A255FF"/>
</linearGradient>
<linearGradient id="paint1_linear" x1="-953.264" y1="874.963" x2="690.077" y2="665.803" gradientUnits="userSpaceOnUse">
<stop stop-color="#00CFFD"/>
<stop offset="1" stop-color="#A255FF"/>
</linearGradient>
<linearGradient id="paint2_linear" x1="-935.39" y1="1232.75" x2="424.298" y2="388.037" gradientUnits="userSpaceOnUse">
<stop stop-color="#3913B8"/>
<stop offset="1" stop-color="#A255FF"/>
</linearGradient>
</defs>
</svg>
