<svg width="1440" height="1216" viewBox="0 0 1440 1216" fill="none" xmlns="http://www.w3.org/2000/svg">
<path d="M-58.2373 243.613C-127.848 157.851 -114.755 31.8971 -28.9927 -37.7135L1365.2 -1169.34C1450.97 -1238.96 1576.92 -1225.86 1646.53 -1140.1L2163.18 -503.579C2232.79 -417.817 2219.69 -291.863 2133.93 -222.252L739.737 909.379C653.975 978.99 528.021 965.897 458.41 880.135L-58.2373 243.613Z" fill="url(#paint0_linear)"/>
<path d="M-40.1988 312.173C-122.075 238.031 -128.344 111.553 -54.202 29.6771L1151.1 -1301.35C1225.24 -1383.22 1351.72 -1389.49 1433.59 -1315.35L2041.27 -765.07C2123.15 -690.928 2129.42 -564.451 2055.28 -482.575L849.978 848.45C775.836 930.326 649.358 936.596 567.482 862.453L-40.1988 312.173Z" fill="url(#paint1_linear)"/>
<path opacity="0.111111" d="M-14.881 371.554C-112.191 320.138 -149.396 199.573 -97.9804 102.263L703.515 -1414.67C754.931 -1511.98 875.496 -1549.18 972.806 -1497.77L1626.92 -1152.15C1724.23 -1100.74 1761.44 -980.171 1710.02 -882.861L908.525 634.068C857.11 731.378 736.544 768.582 639.234 717.167L-14.881 371.554Z" stroke="url(#paint2_linear)" stroke-width="1.44444"/>
<path opacity="0.222222" d="M-23.3731 373.148C-119.663 320.102 -154.719 199.04 -101.673 102.75L731 -1408.72C784.047 -1505.01 905.108 -1540.06 1001.4 -1487.02L1658.14 -1125.22C1754.43 -1072.17 1789.49 -951.108 1736.44 -854.818L903.768 656.651C850.721 752.941 729.66 787.997 633.37 734.95L-23.3731 373.148Z" stroke="url(#paint3_linear)" stroke-width="1.88889"/>
<path opacity="0.333333" d="M-31.9117 374.718C-127.155 320.06 -160.056 198.541 -105.398 103.297L758.504 -1402.08C813.162 -1497.33 934.681 -1530.23 1029.92 -1475.57L1688.93 -1097.38C1784.17 -1042.72 1817.07 -921.205 1762.41 -825.962L898.51 679.417C843.852 774.661 722.333 807.562 627.09 752.904L-31.9117 374.718Z" stroke="url(#paint4_linear)" stroke-width="2.33333"/>
<path opacity="0.444444" d="M-40.4965 376.261C-134.666 320.012 -165.407 198.074 -109.158 103.904L786.013 -1394.75C842.262 -1488.92 964.2 -1519.66 1058.37 -1463.42L1719.26 -1068.66C1813.43 -1012.41 1844.17 -890.471 1787.92 -796.301L892.746 702.357C836.497 796.527 714.559 827.267 620.39 771.018L-40.4965 376.261Z" stroke="url(#paint5_linear)" stroke-width="2.77778"/>
<path opacity="0.555556" d="M-49.1274 377.777C-142.197 319.958 -170.773 197.639 -112.954 104.57L813.514 -1386.73C871.333 -1479.8 993.652 -1508.38 1086.72 -1450.56L1749.11 -1039.05C1842.18 -981.23 1870.76 -858.911 1812.94 -765.842L886.471 725.46C828.652 818.529 706.332 847.105 613.263 789.286L-49.1274 377.777Z" stroke="url(#paint6_linear)" stroke-width="3.22222"/>
<path opacity="0.666667" d="M-57.8035 379.266C-149.747 319.898 -176.154 197.236 -116.786 105.293L840.992 -1378.01C900.36 -1469.96 1023.02 -1496.36 1114.96 -1436.99L1778.47 -1008.56C1870.42 -949.196 1896.82 -826.534 1837.45 -734.591L879.678 748.714C820.31 840.658 697.648 867.065 605.705 807.697L-57.8035 379.266Z" stroke="url(#paint7_linear)" stroke-width="3.66667"/>
<path opacity="0.777778" d="M-66.5249 380.727C-157.316 319.831 -181.551 196.865 -120.656 106.074L868.433 -1368.6C929.328 -1459.39 1052.29 -1483.62 1143.09 -1422.73L1807.32 -977.211C1898.11 -916.315 1922.35 -793.349 1861.45 -702.559L872.362 772.111C811.467 862.902 688.501 887.137 597.71 826.242L-66.5249 380.727Z" stroke="url(#paint8_linear)" stroke-width="4.11111"/>
<path opacity="0.888889" d="M-75.2905 382.158C-164.904 319.757 -186.965 196.526 -124.564 106.912L895.825 -1358.48C958.225 -1448.09 1081.46 -1470.15 1171.07 -1407.75L1835.64 -944.997C1925.25 -882.596 1947.31 -759.365 1884.91 -669.751L864.52 795.638C802.12 885.252 678.888 907.312 589.275 844.912L-75.2905 382.158Z" stroke="url(#paint9_linear)" stroke-width="4.55556"/>
<path d="M-84.1002 383.559C-172.512 319.676 -192.396 196.217 -128.513 107.806L923.152 -1347.66C987.035 -1436.07 1110.49 -1455.95 1198.91 -1392.07L1863.4 -911.931C1951.81 -848.048 1971.69 -724.59 1907.81 -636.178L856.147 819.285C792.264 907.697 668.805 927.581 580.393 863.698L-84.1002 383.559Z" stroke="url(#paint10_linear)" stroke-width="5"/>
<defs>
<linearGradient id="paint0_linear" x1="-184.278" y1="88.3276" x2="2297.41" y2="-301.915" gradientUnits="userSpaceOnUse">
<stop stop-color="#00CFFD"/>
<stop offset="1" stop-color="#A255FF"/>
</linearGradient>
<linearGradient id="paint1_linear" x1="-188.448" y1="177.927" x2="2204.69" y2="-586.237" gradientUnits="userSpaceOnUse">
<stop stop-color="#3A13B8"/>
<stop offset="1" stop-color="#A255FF"/>
</linearGradient>
<linearGradient id="paint2_linear" x1="1254.77" y1="295.112" x2="428.747" y2="-897.574" gradientUnits="userSpaceOnUse">
<stop stop-color="#84FFC9"/>
<stop offset="0.46875" stop-color="#AAB2FF"/>
<stop offset="1" stop-color="#ECA0FF"/>
</linearGradient>
<linearGradient id="paint3_linear" x1="1258.71" y1="321.781" x2="449.262" y2="-896.02" gradientUnits="userSpaceOnUse">
<stop stop-color="#84FFC9"/>
<stop offset="0.46875" stop-color="#AAB2FF"/>
<stop offset="1" stop-color="#ECA0FF"/>
</linearGradient>
<linearGradient id="paint4_linear" x1="1262.11" y1="348.835" x2="469.883" y2="-893.855" gradientUnits="userSpaceOnUse">
<stop stop-color="#84FFC9"/>
<stop offset="0.46875" stop-color="#AAB2FF"/>
<stop offset="1" stop-color="#ECA0FF"/>
</linearGradient>
<linearGradient id="paint5_linear" x1="1264.97" y1="376.262" x2="490.596" y2="-891.076" gradientUnits="userSpaceOnUse">
<stop stop-color="#84FFC9"/>
<stop offset="0.46875" stop-color="#AAB2FF"/>
<stop offset="1" stop-color="#ECA0FF"/>
</linearGradient>
<linearGradient id="paint6_linear" x1="1267.26" y1="404.053" x2="511.387" y2="-887.677" gradientUnits="userSpaceOnUse">
<stop stop-color="#84FFC9"/>
<stop offset="0.46875" stop-color="#AAB2FF"/>
<stop offset="1" stop-color="#ECA0FF"/>
</linearGradient>
<linearGradient id="paint7_linear" x1="1268.98" y1="432.197" x2="532.243" y2="-883.654" gradientUnits="userSpaceOnUse">
<stop stop-color="#84FFC9"/>
<stop offset="0.46875" stop-color="#AAB2FF"/>
<stop offset="1" stop-color="#ECA0FF"/>
</linearGradient>
<linearGradient id="paint8_linear" x1="1270.13" y1="460.682" x2="553.15" y2="-879.005" gradientUnits="userSpaceOnUse">
<stop stop-color="#84FFC9"/>
<stop offset="0.46875" stop-color="#AAB2FF"/>
<stop offset="1" stop-color="#ECA0FF"/>
</linearGradient>
<linearGradient id="paint9_linear" x1="1270.69" y1="489.497" x2="574.094" y2="-873.723" gradientUnits="userSpaceOnUse">
<stop stop-color="#84FFC9"/>
<stop offset="0.46875" stop-color="#AAB2FF"/>
<stop offset="1" stop-color="#ECA0FF"/>
</linearGradient>
<linearGradient id="paint10_linear" x1="1270.66" y1="518.631" x2="595.06" y2="-867.808" gradientUnits="userSpaceOnUse">
<stop stop-color="#84FFC9"/>
<stop offset="0.46875" stop-color="#AAB2FF"/>
<stop offset="1" stop-color="#ECA0FF"/>
</linearGradient>
</defs>
</svg>
